<svg width="140" height="32" viewBox="0 0 140 32" fill="none" xmlns="http://www.w3.org/2000/svg">
<path d="M6.66666 17.3333C6.66666 19.5312 7.55296 21.522 8.98765 22.9679C9.12601 23.1074 9.19519 23.1771 9.23603 23.2442C9.275 23.3081 9.29768 23.3632 9.31508 23.4361C9.33332 23.5124 9.33332 23.5993 9.33332 23.7731V26.9333C9.33332 27.3067 9.33332 27.4934 9.40598 27.636C9.4699 27.7614 9.57189 27.8634 9.69733 27.9273C9.83994 28 10.0266 28 10.4 28H12.9333C13.3067 28 13.4934 28 13.636 27.9273C13.7614 27.8634 13.8634 27.7614 13.9273 27.636C14 27.4934 14 27.3067 14 26.9333V26.4C14 26.0266 14 25.8399 14.0727 25.6973C14.1366 25.5719 14.2386 25.4699 14.364 25.406C14.5066 25.3333 14.6933 25.3333 15.0667 25.3333H16.9333C17.3067 25.3333 17.4934 25.3333 17.636 25.406C17.7614 25.4699 17.8634 25.5719 17.9273 25.6973C18 25.8399 18 26.0266 18 26.4V26.9333C18 27.3067 18 27.4934 18.0727 27.636C18.1366 27.7614 18.2386 27.8634 18.364 27.9273C18.5066 28 18.6933 28 19.0667 28H21.6001C21.9735 28 22.1601 28 22.3027 27.9273C22.4282 27.8634 22.5302 27.7614 22.5941 27.636C22.6667 27.4934 22.6667 27.3067 22.6667 26.9333V25.6324C22.6667 25.363 22.6667 25.2283 22.7051 25.1202C22.7419 25.0165 22.7882 24.944 22.8667 24.867C22.9486 24.7867 23.0874 24.7222 23.365 24.5934C24.6746 23.9854 25.7921 23.0334 26.6016 21.8536C26.7439 21.6461 26.8151 21.5423 26.8911 21.4811C26.9637 21.4225 27.029 21.3881 27.1184 21.3613C27.2119 21.3333 27.323 21.3333 27.5451 21.3333H28.2667C28.6401 21.3333 28.8268 21.3333 28.9694 21.2607C29.0949 21.1968 29.1968 21.0948 29.2608 20.9693C29.3334 20.8267 29.3334 20.64 29.3334 20.2667V15.7143C29.3334 15.3589 29.3334 15.1812 29.2674 15.044C29.2019 14.908 29.0921 14.7982 28.956 14.7327C28.8189 14.6667 28.6412 14.6667 28.2858 14.6667C28.0285 14.6667 27.8998 14.6667 27.7962 14.6317C27.6845 14.5941 27.6061 14.544 27.5251 14.4584C27.4499 14.379 27.3885 14.2462 27.2658 13.9806C26.8718 13.1283 26.3323 12.357 25.6791 11.6987C25.5407 11.5593 25.4715 11.4896 25.4307 11.4225C25.3917 11.3585 25.3691 11.3034 25.3517 11.2306C25.3334 11.1542 25.3334 11.0673 25.3334 10.8936V9.4141C25.3334 8.93404 25.3334 8.69401 25.2334 8.53267C25.1459 8.39134 25.0086 8.28784 24.8487 8.24246C24.6661 8.19066 24.4353 8.2566 23.9737 8.38848L20.8103 9.29229C20.7565 9.30765 20.7297 9.31533 20.7023 9.32072C20.6781 9.32551 20.6535 9.32895 20.6289 9.33101C20.6011 9.33333 20.5732 9.33333 20.5173 9.33333H19.9455M6.66666 17.3333C6.66666 14.2612 8.39827 11.5936 10.9387 10.2532M6.66666 17.3333H5.33341C3.86066 17.3333 2.66675 16.1394 2.66675 14.6667C2.66675 13.6796 3.20301 12.8178 4.00008 12.3568M20.0001 8.66667C20.0001 11.244 17.9107 13.3333 15.3334 13.3333C12.7561 13.3333 10.6667 11.244 10.6667 8.66667C10.6667 6.08934 12.7561 4 15.3334 4C17.9107 4 20.0001 6.08934 20.0001 8.66667Z" stroke="#008900" stroke-width="2.5" stroke-linecap="round" stroke-linejoin="round"/>
<path d="M40.66 15.3H47.38V17.9H40.66V15.3ZM40.9 23H37.66V9H48.24V11.6H40.9V23ZM49.8134 23V12.24H52.9334V23H49.8134ZM51.3734 10.74C50.8001 10.74 50.3334 10.5733 49.9734 10.24C49.6134 9.90667 49.4334 9.49333 49.4334 9C49.4334 8.50667 49.6134 8.09333 49.9734 7.76C50.3334 7.42667 50.8001 7.26 51.3734 7.26C51.9468 7.26 52.4134 7.42 52.7734 7.74C53.1334 8.04667 53.3134 8.44667 53.3134 8.94C53.3134 9.46 53.1334 9.89333 52.7734 10.24C52.4268 10.5733 51.9601 10.74 51.3734 10.74ZM61.9691 12.08C62.8224 12.08 63.5824 12.2533 64.2491 12.6C64.9291 12.9333 65.4624 13.4533 65.8491 14.16C66.2357 14.8533 66.4291 15.7467 66.4291 16.84V23H63.3091V17.32C63.3091 16.4533 63.1157 15.8133 62.7291 15.4C62.3557 14.9867 61.8224 14.78 61.1291 14.78C60.6357 14.78 60.1891 14.8867 59.7891 15.1C59.4024 15.3 59.0957 15.6133 58.8691 16.04C58.6557 16.4667 58.5491 17.0133 58.5491 17.68V23H55.4291V12.24H58.4091V15.22L57.8491 14.32C58.2357 13.6 58.7891 13.0467 59.5091 12.66C60.2291 12.2733 61.0491 12.08 61.9691 12.08ZM75.4572 23V20.9L75.2572 20.44V16.68C75.2572 16.0133 75.0505 15.4933 74.6372 15.12C74.2372 14.7467 73.6172 14.56 72.7772 14.56C72.2039 14.56 71.6372 14.6533 71.0772 14.84C70.5305 15.0133 70.0639 15.2533 69.6772 15.56L68.5572 13.38C69.1439 12.9667 69.8505 12.6467 70.6772 12.42C71.5039 12.1933 72.3439 12.08 73.1972 12.08C74.8372 12.08 76.1105 12.4667 77.0172 13.24C77.9239 14.0133 78.3772 15.22 78.3772 16.86V23H75.4572ZM72.1772 23.16C71.3372 23.16 70.6172 23.02 70.0172 22.74C69.4172 22.4467 68.9572 22.0533 68.6372 21.56C68.3172 21.0667 68.1572 20.5133 68.1572 19.9C68.1572 19.26 68.3105 18.7 68.6172 18.22C68.9372 17.74 69.4372 17.3667 70.1172 17.1C70.7972 16.82 71.6839 16.68 72.7772 16.68H75.6372V18.5H73.1172C72.3839 18.5 71.8772 18.62 71.5972 18.86C71.3305 19.1 71.1972 19.4 71.1972 19.76C71.1972 20.16 71.3505 20.48 71.6572 20.72C71.9772 20.9467 72.4105 21.06 72.9572 21.06C73.4772 21.06 73.9439 20.94 74.3572 20.7C74.7705 20.4467 75.0705 20.08 75.2572 19.6L75.7372 21.04C75.5105 21.7333 75.0972 22.26 74.4972 22.62C73.8972 22.98 73.1239 23.16 72.1772 23.16ZM87.3409 12.08C88.1943 12.08 88.9543 12.2533 89.6209 12.6C90.3009 12.9333 90.8343 13.4533 91.2209 14.16C91.6076 14.8533 91.8009 15.7467 91.8009 16.84V23H88.6809V17.32C88.6809 16.4533 88.4876 15.8133 88.1009 15.4C87.7276 14.9867 87.1943 14.78 86.5009 14.78C86.0076 14.78 85.5609 14.8867 85.1609 15.1C84.7743 15.3 84.4676 15.6133 84.2409 16.04C84.0276 16.4667 83.9209 17.0133 83.9209 17.68V23H80.8009V12.24H83.7809V15.22L83.2209 14.32C83.6076 13.6 84.1609 13.0467 84.8809 12.66C85.6009 12.2733 86.4209 12.08 87.3409 12.08ZM97.4491 15.3H104.169V17.9H97.4491V15.3ZM97.6891 23H94.4491V9H105.029V11.6H97.6891V23ZM112.89 23V20.9L112.69 20.44V16.68C112.69 16.0133 112.483 15.4933 112.07 15.12C111.67 14.7467 111.05 14.56 110.21 14.56C109.637 14.56 109.07 14.6533 108.51 14.84C107.963 15.0133 107.497 15.2533 107.11 15.56L105.99 13.38C106.577 12.9667 107.283 12.6467 108.11 12.42C108.937 12.1933 109.777 12.08 110.63 12.08C112.27 12.08 113.543 12.4667 114.45 13.24C115.357 14.0133 115.81 15.22 115.81 16.86V23H112.89ZM109.61 23.16C108.77 23.16 108.05 23.02 107.45 22.74C106.85 22.4467 106.39 22.0533 106.07 21.56C105.75 21.0667 105.59 20.5133 105.59 19.9C105.59 19.26 105.743 18.7 106.05 18.22C106.37 17.74 106.87 17.3667 107.55 17.1C108.23 16.82 109.117 16.68 110.21 16.68H113.07V18.5H110.55C109.817 18.5 109.31 18.62 109.03 18.86C108.763 19.1 108.63 19.4 108.63 19.76C108.63 20.16 108.783 20.48 109.09 20.72C109.41 20.9467 109.843 21.06 110.39 21.06C110.91 21.06 111.377 20.94 111.79 20.7C112.203 20.4467 112.503 20.08 112.69 19.6L113.17 21.04C112.943 21.7333 112.53 22.26 111.93 22.62C111.33 22.98 110.557 23.16 109.61 23.16ZM109.13 10.86L111.83 7.98H115.19L111.57 10.86H109.13ZM123.512 23.16C122.352 23.16 121.319 22.9267 120.412 22.46C119.505 21.98 118.792 21.32 118.272 20.48C117.765 19.64 117.512 18.6867 117.512 17.62C117.512 16.54 117.765 15.5867 118.272 14.76C118.792 13.92 119.505 13.2667 120.412 12.8C121.319 12.32 122.352 12.08 123.512 12.08C124.645 12.08 125.632 12.32 126.472 12.8C127.312 13.2667 127.932 13.94 128.332 14.82L125.912 16.12C125.632 15.6133 125.279 15.24 124.852 15C124.439 14.76 123.985 14.64 123.492 14.64C122.959 14.64 122.479 14.76 122.052 15C121.625 15.24 121.285 15.58 121.032 16.02C120.792 16.46 120.672 16.9933 120.672 17.62C120.672 18.2467 120.792 18.78 121.032 19.22C121.285 19.66 121.625 20 122.052 20.24C122.479 20.48 122.959 20.6 123.492 20.6C123.985 20.6 124.439 20.4867 124.852 20.26C125.279 20.02 125.632 19.64 125.912 19.12L128.332 20.44C127.932 21.3067 127.312 21.98 126.472 22.46C125.632 22.9267 124.645 23.16 123.512 23.16ZM129.67 23V12.24H132.79V23H129.67ZM131.23 10.74C130.656 10.74 130.19 10.5733 129.83 10.24C129.47 9.90667 129.29 9.49333 129.29 9C129.29 8.50667 129.47 8.09333 129.83 7.76C130.19 7.42667 130.656 7.26 131.23 7.26C131.803 7.26 132.27 7.42 132.63 7.74C132.99 8.04667 133.17 8.44667 133.17 8.94C133.17 9.46 132.99 9.89333 132.63 10.24C132.283 10.5733 131.816 10.74 131.23 10.74ZM135.285 23V8.16H138.405V23H135.285Z" fill="#008900"/>
</svg>
